# 3ds Max Wavefront OBJ Exporter v0.97b - (c)2007 guruware
# File Created: 24.02.2012 18:05:56

#
# object Box01
#

v  0.5000 -0.5000 -0.5000
v  0.5000 -0.5000 0.5000
v  -0.5000 -0.5000 0.5000
v  -0.5000 -0.5000 -0.5000
v  0.5000 0.5000 -0.5000
v  -0.5000 0.5000 -0.5000
v  -0.5000 0.5000 0.5000
v  0.5000 0.5000 0.5000
# 8 vertices

vn 0.0000 -1.0000 -0.0000
vn 0.0000 1.0000 -0.0000
vn 0.0000 0.0000 1.0000
vn 1.0000 0.0000 -0.0000
vn 0.0000 0.0000 -1.0000
vn -1.0000 0.0000 -0.0000
# 6 vertex normals

vt 0.5000 1.0000
vt 0.5000 0.5000
vt 1.0000 0.5000
vt 1.0000 1.0000
# 4 texture coords

g Box01
f 1/1/1 2/2/1 3/3/1 
f 3/3/1 4/4/1 1/1/1 
f 5/4/2 6/1/2 7/2/2 
f 7/2/2 8/3/2 5/4/2 
f 8/4/3 7/1/3 3/2/3 
f 3/2/3 2/3/3 8/4/3 
f 5/4/4 8/1/4 2/2/4 
f 2/2/4 1/3/4 5/4/4 
f 6/4/5 5/1/5 1/2/5 
f 1/2/5 4/3/5 6/4/5 
f 7/4/6 6/1/6 4/2/6 
f 4/2/6 3/3/6 7/4/6 
# 12 faces

